<svg preserveAspectRatio="none" width="100%" height="100%" overflow="visible" style="display: block;" viewBox="0 0 24 24" fill="none" xmlns="http://www.w3.org/2000/svg">
<g id="lucide/diamond-percent">
<path id="Vector" d="M9.2 9.2H9.21M14.5 9.5L9.5 14.5M14.7 14.8H14.71M2.7 10.3C2.47595 10.5238 2.29821 10.7896 2.17694 11.0822C2.05567 11.3747 1.99325 11.6883 1.99325 12.005C1.99325 12.3217 2.05567 12.6353 2.17694 12.9278C2.29821 13.2204 2.47595 13.4862 2.7 13.71L10.29 21.3C10.5138 21.5241 10.7796 21.7018 11.0722 21.8231C11.3647 21.9443 11.6783 22.0067 11.995 22.0067C12.3117 22.0067 12.6253 21.9443 12.9178 21.8231C13.2104 21.7018 13.4762 21.5241 13.7 21.3L21.29 13.71C21.5141 13.4862 21.6918 13.2204 21.8131 12.9278C21.9343 12.6353 21.9967 12.3217 21.9967 12.005C21.9967 11.6883 21.9343 11.3747 21.8131 11.0822C21.6918 10.7896 21.5141 10.5238 21.29 10.3L13.7 2.71C13.4762 2.48595 13.2104 2.30821 12.9178 2.18694C12.6253 2.06567 12.3117 2.00325 11.995 2.00325C11.6783 2.00325 11.3647 2.06567 11.0722 2.18694C10.7796 2.30821 10.5138 2.48595 10.29 2.71L2.7 10.3Z" stroke="var(--stroke-0, #759390)" stroke-width="2" stroke-linecap="round" stroke-linejoin="round"/>
</g>
</svg>
